<svg xmlns="http://www.w3.org/2000/svg" viewBox="0 0 32 32" width="32" height="32">
  <defs>
    <linearGradient id="rocketGradient" x1="0%" y1="0%" x2="100%" y2="100%">
      <stop offset="0%" style="stop-color:#ff6b35;stop-opacity:1" />
      <stop offset="50%" style="stop-color:#f7941e;stop-opacity:1" />
      <stop offset="100%" style="stop-color:#00d4aa;stop-opacity:1" />
    </linearGradient>
    <linearGradient id="flameGradient" x1="0%" y1="0%" x2="0%" y2="100%">
      <stop offset="0%" style="stop-color:#ff4757;stop-opacity:1" />
      <stop offset="100%" style="stop-color:#ff6348;stop-opacity:1" />
    </linearGradient>
  </defs>
  
  <!-- Background circle -->
  <circle cx="16" cy="16" r="15" fill="#1e3a8a" stroke="#3b82f6" stroke-width="2"/>
  
  <!-- Rocket body -->
  <ellipse cx="16" cy="14" rx="4" ry="8" fill="url(#rocketGradient)"/>
  
  <!-- Rocket tip -->
  <path d="M16 6 L12 10 L20 10 Z" fill="#e5e7eb"/>
  
  <!-- Rocket window -->
  <circle cx="16" cy="12" r="2" fill="#60a5fa" stroke="#1e40af" stroke-width="0.5"/>
  
  <!-- Rocket fins -->
  <path d="M12 18 L10 22 L12 20 Z" fill="#6b7280"/>
  <path d="M20 18 L22 22 L20 20 Z" fill="#6b7280"/>
  
  <!-- Rocket flames -->
  <ellipse cx="14" cy="24" rx="1.5" ry="3" fill="url(#flameGradient)"/>
  <ellipse cx="16" cy="25" rx="1" ry="4" fill="#ff4757"/>
  <ellipse cx="18" cy="24" rx="1.5" ry="3" fill="url(#flameGradient)"/>
  
  <!-- Stars -->
  <circle cx="8" cy="8" r="0.8" fill="#fbbf24"/>
  <circle cx="24" cy="10" r="0.6" fill="#fbbf24"/>
  <circle cx="6" cy="20" r="0.5" fill="#fbbf24"/>
  <circle cx="26" cy="24" r="0.7" fill="#fbbf24"/>
</svg>